<svg version="1.1" xmlns="http://www.w3.org/2000/svg" style="display: block;" viewBox="0 0 2048 2048" width="1024" height="1024" preserveAspectRatio="none">
    <path transform="translate(0,0)" fill="rgb(56,56,56)" d="M 506.029 384.344 C 526.259 383.176 554.303 384.123 575.394 384.123 L 711 384.152 L 1090.18 384.167 C 1123.66 384.417 1149.27 392.733 1166.79 423.194 C 1179.22 444.797 1177.11 467.578 1177.15 491.513 C 1177.25 507.402 1177.26 523.291 1177.17 539.18 C 1212.24 543.173 1249.47 550.557 1284.58 555.542 C 1316.3 560.045 1348.65 564.967 1380.14 570.552 C 1399.77 574.034 1418.12 585.854 1428.86 602.858 C 1447.07 631.681 1440.62 656.286 1433.77 686.84 L 1423.89 730.583 C 1455.43 740.78 1488.44 749.026 1520.25 758.976 C 1555.3 769.365 1591.7 776.143 1607.17 813.8 C 1623.49 853.508 1600.36 891.306 1584.86 927.768 C 1569.75 963.135 1554.84 998.583 1540.11 1034.11 L 1358.31 1465.25 C 1343.39 1499.51 1328.8 1533.92 1314.56 1568.47 C 1307.93 1584.17 1297.01 1612.21 1288.95 1625.83 C 1284.41 1633.5 1278.6 1640.33 1271.77 1646.05 C 1233.76 1677.63 1195.99 1658.85 1154.76 1646.96 C 1150.59 1645.76 1146.42 1644.47 1142.26 1643.23 L 984.269 1595.39 L 730.841 1519.16 L 650.079 1495.07 C 637.422 1491.25 623.633 1487.8 611.344 1483.07 C 575.16 1469.12 562.136 1436.69 566.263 1400.86 C 537.194 1383.42 522.342 1365.96 520.903 1330.75 C 499.832 1330.63 485.429 1329.44 467.862 1316.86 C 433.906 1292.53 434.237 1260.53 434.325 1223.8 L 434.327 1166.24 L 434.428 954.306 L 434.72 625.214 L 434.548 513.403 C 434.587 495.056 433.708 475.485 435.185 457.325 C 438.572 415.666 466.643 390.568 506.029 384.344 z M 509.672 435.036 C 485.609 442.431 485.704 456.627 486.144 478.402 C 486.326 487.389 486.273 496.885 486.331 505.905 C 486.589 534.178 486.573 562.453 486.284 590.726 C 484.473 753.51 486.163 919.328 486.143 1082.47 L 486.262 1161.89 C 486.145 1188.92 485.895 1215.89 486.014 1243 C 486.079 1257.7 486.858 1269.42 501.648 1277.28 C 507.84 1280.52 514.014 1279.79 520.754 1280.12 C 561.721 1280.2 602.742 1280.06 643.719 1280.1 L 922.36 1280.09 L 1043.6 1280.06 C 1057.83 1280.09 1093.74 1281.06 1105.77 1279.43 C 1121.41 1273.61 1126.11 1264.33 1126.26 1248.48 C 1126.63 1210.74 1126.54 1173 1126.56 1135.26 L 1126.54 912.937 L 1126.21 578.25 C 1126.04 542.685 1126.24 506.937 1126.3 471.547 C 1126.32 458.251 1123.61 439.404 1108.58 436.784 C 1089.41 433.44 1063 435.153 1043.5 435.162 L 953.391 435.039 C 806.576 434.821 656.27 433.323 509.672 435.036 z M 571.639 1331.64 C 578.563 1355.68 593.541 1354.69 614.715 1357.73 C 687.791 1368.21 760.975 1381.24 833.997 1391.79 L 1080.57 1429.58 L 1152 1440.74 C 1163.45 1442.49 1176.36 1444.98 1187.79 1445.48 C 1200.57 1446.04 1211.13 1434.8 1213.75 1423.01 C 1216.77 1409.4 1219.74 1395.97 1222.8 1382.47 L 1243.14 1293.22 L 1310.27 998.801 L 1360.6 779.215 L 1380.41 693.468 C 1384.15 677.021 1396.18 642.693 1384.15 628.842 C 1373.64 616.751 1339.04 615.077 1322.28 612.486 L 1226.76 597.523 C 1213.45 595.502 1188.66 592.679 1177.07 590.083 L 1176.94 1067.21 L 1176.98 1198.78 C 1176.99 1220.21 1178.18 1247.01 1175.65 1267.46 C 1171.61 1300.12 1139.05 1329.48 1106.26 1330.67 C 1098.61 1331.12 1091.32 1331.1 1083.75 1331.05 L 743.468 1331.11 L 628.6 1331.36 C 613.214 1331.39 586.284 1330.45 571.639 1331.64 z M 616.679 1409.48 C 616.129 1422.69 619.8 1432.15 633.23 1436.42 C 659.665 1444.83 686.623 1453.82 713.39 1461.1 C 742.619 1469.06 772.507 1480.01 801.649 1487.38 L 1060.16 1565.04 C 1092.6 1575.01 1125.11 1584.79 1157.67 1594.37 C 1174.89 1599.52 1192.52 1604.98 1209.8 1609.7 C 1214.83 1611.07 1227.63 1612.91 1231.86 1610.32 C 1237.52 1606.86 1244.06 1602.84 1246.84 1596.54 C 1254.86 1578.35 1262.48 1559.84 1270.18 1541.55 L 1313.46 1439.41 L 1468.05 1073.69 L 1532.95 920.262 C 1542.27 898.159 1552.44 875.646 1560.58 853.021 C 1564.34 842.572 1560.16 827.667 1549.59 822.458 C 1533.34 815.072 1514.47 810.137 1497.33 805.064 C 1468.88 796.726 1440.49 788.199 1412.15 779.484 L 1302.89 1259.87 L 1274.97 1384.22 C 1266.14 1423.54 1264.21 1462.95 1227.71 1485.72 C 1198.46 1503.96 1169.62 1494.9 1138.09 1490.21 L 1024.64 1472.5 L 792.513 1436.73 C 734.622 1427.65 674.659 1417.57 616.679 1409.48 z"/>
    <path transform="translate(0,0)" fill="rgb(56,56,56)" d="M 806.316 725.863 C 830.623 701.481 859.331 686.824 894.12 686.372 C 926.089 685.649 956.988 697.898 979.779 720.328 C 1002.46 742.858 1015.19 773.515 1015.15 805.481 C 1015.06 868.731 975.279 896.501 933.924 936.482 C 914.201 955.463 894.673 974.646 875.344 994.029 C 857.538 1011.18 830.922 1041.6 810.61 1051.72 C 795.937 1051.38 791.621 1047.83 781.044 1037.37 C 754.801 1011.41 728.595 985.426 702.145 959.68 C 685.154 943.376 668.291 926.939 651.558 910.37 C 639.726 898.664 624.777 884.881 615.908 871.093 C 604.247 852.982 597.725 832.044 597.036 810.516 C 596.116 777.716 608.47 745.933 631.299 722.364 C 657.272 695.673 684.919 686.952 721.187 686.524 C 758.757 688.673 779.245 700.929 806.316 725.863 z M 806.106 991.822 C 829.587 966.339 855.944 942.924 880.247 918.282 L 919.928 879.935 C 930.824 869.31 944.251 857.122 952.707 845.059 C 975.028 812.773 965.626 767.434 931.5 747.44 C 903.04 730.767 869.723 734.178 846.678 758.108 C 829.178 776.281 809.498 804.713 783.229 776.65 C 762.124 754.104 747.757 736.677 714.361 737.271 C 693.694 739.656 677.215 745.271 663.635 762.135 C 651.844 776.516 646.339 795.037 648.36 813.524 C 652.161 847.598 679.268 866.554 702.349 889.171 L 753.7 939.79 C 771.431 956.943 789.435 973.612 806.106 991.822 z"/>
</svg>